<svg xmlns="http://www.w3.org/2000/svg" width="14.154" height="11.324" viewBox="0 0 14.154 11.324">
  <path id="Path_3628" data-name="Path 3628" d="M550.317,398.662a2.751,2.751,0,1,0,.811-1.945A2.751,2.751,0,0,0,550.317,398.662Zm6.822-4.214a10.028,10.028,0,0,1,2.973,4.008.509.509,0,0,1,0,.4c-1.476,3.418-4.106,5.463-7.034,5.463h-.007c-2.921,0-5.552-2.045-7.029-5.463a.509.509,0,0,1,0-.4c1.477-3.418,4.105-5.456,7.029-5.456h.007a6.561,6.561,0,0,1,4.06,1.448Zm-4.062,5.921a1.712,1.712,0,1,0,0-3.424,1.33,1.33,0,0,0-.241.021,1.416,1.416,0,0,1-1.415,1.359h-.035a1.8,1.8,0,0,0-.035.336A1.721,1.721,0,0,0,553.078,400.369Z" transform="translate(-546 -393)" fill="#2b2728" fill-rule="evenodd"/>
</svg>
